# xmcd
#
# Track frame offsets:
#	150
#	15972
#	25855
#	43940
#	61190
#	77450
#	103257
#	119542
#	137350
#	148387
#	177272
#	191302
#	210452
#
# Disc length: 3039 seconds
#
# Revision: 0
# Processed by: cddbd v1.5.1PL0 Copyright (c) Steve Scherf et al.
# Submitted via: dBpowerAMP V4.0
#
DISCID=ab0bdd0d
DTITLE=B. Bordy - B. Bordy
DYEAR=1995
DGENRE=Blues
TTITLE0=Mailbox Blues
TTITLE1=Pigfoot and a Bottle of Beer
TTITLE2=Money Honey
TTITLE3=I Got News
TTITLE4=Two-Faced World
TTITLE5=Down At Your Buryin' ( V-8 Ford Blues)
TTITLE6=Heaven on Layaway
TTITLE7=It All Comes Back Again
TTITLE8=Good Mornin' Miss Brown
TTITLE9=On the Way Down
TTITLE10=When Did It Get So Wierd?
TTITLE11=Another Page
TTITLE12=One More Roll
EXTD=
EXTT0=
EXTT1=
EXTT2=
EXTT3=
EXTT4=
EXTT5=
EXTT6=
EXTT7=
EXTT8=
EXTT9=
EXTT10=
EXTT11=
EXTT12=
PLAYORDER=
